<?xml version="1.0" encoding="UTF-8" standalone="no"?>
<svg
   xmlns:dc="http://purl.org/dc/elements/1.1/"
   xmlns:cc="http://creativecommons.org/ns#"
   xmlns:rdf="http://www.w3.org/1999/02/22-rdf-syntax-ns#"
   xmlns:svg="http://www.w3.org/2000/svg"
   xmlns="http://www.w3.org/2000/svg"
   xmlns:sodipodi="http://sodipodi.sourceforge.net/DTD/sodipodi-0.dtd"
   xmlns:inkscape="http://www.inkscape.org/namespaces/inkscape"
   width="400"
   height="600"
   viewBox="0 0 105.83333 158.75"
   version="1.1"
   id="svg8"
   sodipodi:docname="origami-sailboat.svg"
   inkscape:version="1.0.1 (3bc2e813f5, 2020-09-07)">
  <title
     id="title874">Origami sailboat</title>
  <defs
     id="defs2" />
  <sodipodi:namedview
     id="base"
     pagecolor="#ffffff"
     bordercolor="#666666"
     borderopacity="1.0"
     inkscape:pageopacity="0.0"
     inkscape:pageshadow="2"
     inkscape:zoom="1.39"
     inkscape:cx="200"
     inkscape:cy="300"
     inkscape:document-units="px"
     inkscape:current-layer="layer1"
     inkscape:document-rotation="0"
     showgrid="false"
     units="px"
     inkscape:window-width="1920"
     inkscape:window-height="1020"
     inkscape:window-x="0"
     inkscape:window-y="28"
     inkscape:window-maximized="1"
     inkscape:snap-global="false"
     showguides="true"
     inkscape:guide-bbox="true"
     inkscape:snap-center="true">
    <inkscape:grid
       type="xygrid"
       id="grid1143" />
  </sodipodi:namedview>
  <metadata
     id="metadata5">
    <rdf:RDF>
      <cc:Work
         rdf:about="">
        <dc:format>image/svg+xml</dc:format>
        <dc:type
           rdf:resource="http://purl.org/dc/dcmitype/StillImage" />
        <dc:title>Origami sailboat</dc:title>
        <cc:license
           rdf:resource="http://creativecommons.org/publicdomain/zero/1.0/" />
        <dc:date>january 2021</dc:date>
        <dc:creator>
          <cc:Agent>
            <dc:title>il</dc:title>
          </cc:Agent>
        </dc:creator>
        <dc:rights>
          <cc:Agent>
            <dc:title></dc:title>
          </cc:Agent>
        </dc:rights>
      </cc:Work>
      <cc:License
         rdf:about="http://creativecommons.org/publicdomain/zero/1.0/">
        <cc:permits
           rdf:resource="http://creativecommons.org/ns#Reproduction" />
        <cc:permits
           rdf:resource="http://creativecommons.org/ns#Distribution" />
        <cc:permits
           rdf:resource="http://creativecommons.org/ns#DerivativeWorks" />
      </cc:License>
    </rdf:RDF>
  </metadata>
  <g
     inkscape:label="Calque 1"
     inkscape:groupmode="layer"
     id="layer1">
    <path
       style="fill:#e1211c;fill-opacity:1;stroke:#000000;stroke-width:0.529167;stroke-linecap:butt;stroke-linejoin:round;stroke-miterlimit:4;stroke-dasharray:none;stroke-opacity:1"
       d="m 50.990849,130.3286 37.776182,10.31178 -12.706845,9.10095 -28.091685,-4.36256 z"
       id="path919"
       sodipodi:nodetypes="ccccc" />
    <path
       style="fill:#ffffff;stroke:#000000;stroke-width:0.529167;stroke-linecap:butt;stroke-linejoin:round;stroke-miterlimit:4;stroke-dasharray:none;stroke-opacity:1"
       d="M 17.066324,138.84183 67.815745,8.7710851 67.328571,142.4022 Z"
       id="path915"
       sodipodi:nodetypes="cccc" />
    <path
       style="fill:#f62721;fill-opacity:1;stroke:#000000;stroke-width:0.529167;stroke-linecap:butt;stroke-linejoin:round;stroke-miterlimit:4;stroke-dasharray:none;stroke-opacity:1"
       d="m 67.186231,137.98128 c -0.271672,1.41471 -3.187018,1.76712 -4.40317,2.27754 l 7.192637,1.46369 z"
       id="path921"
       sodipodi:nodetypes="cccc" />
    <g
       id="g1380"
       transform="rotate(2.1082788,-77.02394,-204.79396)">
      <g
         id="g1340"
         transform="matrix(0.38709817,0,0,0.38709817,49.058102,106.14751)">
        <g
           id="g1196"
           transform="translate(-19.583387,14.018594)">
          <path
             id="path1149"
             style="opacity:1;fill:none;fill-opacity:1;stroke:#1490bb;stroke-width:3.99999;stroke-linecap:butt;stroke-linejoin:round;stroke-miterlimit:4;stroke-dasharray:none;stroke-dashoffset:0;stroke-opacity:1"
             d="m 36.115108,230.21777 a 20,20 0 0 1 0,-0.002 20,20 0 0 1 20,-20 20,20 0 0 1 20.000001,20 v 0 a 20,20 0 0 1 0,0.002"
             transform="scale(0.26458333)" />
          <path
             id="path1187"
             style="opacity:1;fill:none;fill-opacity:1;stroke:#1490bb;stroke-width:5.81817;stroke-linecap:butt;stroke-linejoin:round;stroke-miterlimit:4;stroke-dasharray:none;stroke-dashoffset:0;stroke-opacity:1"
             d="m 27.024192,230.21582 a 29.090916,29.090916 0 0 1 29.090916,-29.09091 29.090916,29.090916 0 0 1 29.090914,29.09091"
             transform="scale(0.26458333)" />
          <path
             id="circle1153"
             style="opacity:1;fill:none;fill-opacity:1;stroke:#1490bb;stroke-width:7.63635;stroke-linecap:butt;stroke-linejoin:round;stroke-miterlimit:4;stroke-dasharray:none;stroke-dashoffset:0;stroke-opacity:1"
             d="m 17.933281,230.21776 a 38.181827,38.181827 0 0 1 0,-0.002 38.181827,38.181827 0 0 1 38.181827,-38.18182 38.181827,38.181827 0 0 1 38.181827,38.18182 v 0 a 38.181827,38.181827 0 0 1 0,0.002"
             transform="scale(0.26458333)" />
        </g>
        <g
           id="g1204"
           transform="translate(-39.787937,14.018594)">
          <path
             id="path1198"
             style="opacity:1;fill:none;fill-opacity:1;stroke:#1490bb;stroke-width:3.99999;stroke-linecap:butt;stroke-linejoin:round;stroke-miterlimit:4;stroke-dasharray:none;stroke-dashoffset:0;stroke-opacity:1"
             d="m 36.115108,230.21777 a 20,20 0 0 1 0,-0.002 20,20 0 0 1 20,-20 20,20 0 0 1 20.000001,20 v 0 a 20,20 0 0 1 0,0.002"
             transform="scale(0.26458333)" />
          <path
             id="path1200"
             style="opacity:1;fill:none;fill-opacity:1;stroke:#1490bb;stroke-width:5.81817;stroke-linecap:butt;stroke-linejoin:round;stroke-miterlimit:4;stroke-dasharray:none;stroke-dashoffset:0;stroke-opacity:1"
             d="m 27.024192,230.21582 a 29.090916,29.090916 0 0 1 29.090916,-29.09091 29.090916,29.090916 0 0 1 29.090914,29.09091"
             transform="scale(0.26458333)" />
          <path
             id="path1202"
             style="opacity:1;fill:none;fill-opacity:1;stroke:#1490bb;stroke-width:7.63635;stroke-linecap:butt;stroke-linejoin:round;stroke-miterlimit:4;stroke-dasharray:none;stroke-dashoffset:0;stroke-opacity:1"
             d="m 17.933281,230.21776 a 38.181827,38.181827 0 0 1 0,-0.002 38.181827,38.181827 0 0 1 38.181827,-38.18182 38.181827,38.181827 0 0 1 38.181827,38.18182 v 0 a 38.181827,38.181827 0 0 1 0,0.002"
             transform="scale(0.26458333)" />
        </g>
        <g
           id="g1212"
           transform="translate(20.825713,14.018065)">
          <path
             id="path1206"
             style="opacity:1;fill:none;fill-opacity:1;stroke:#1490bb;stroke-width:3.99999;stroke-linecap:butt;stroke-linejoin:round;stroke-miterlimit:4;stroke-dasharray:none;stroke-dashoffset:0;stroke-opacity:1"
             d="m 36.115108,230.21777 a 20,20 0 0 1 0,-0.002 20,20 0 0 1 20,-20 20,20 0 0 1 20.000001,20 v 0 a 20,20 0 0 1 0,0.002"
             transform="scale(0.26458333)" />
          <path
             id="path1208"
             style="opacity:1;fill:none;fill-opacity:1;stroke:#1490bb;stroke-width:5.81817;stroke-linecap:butt;stroke-linejoin:round;stroke-miterlimit:4;stroke-dasharray:none;stroke-dashoffset:0;stroke-opacity:1"
             d="m 27.024192,230.21582 a 29.090916,29.090916 0 0 1 29.090916,-29.09091 29.090916,29.090916 0 0 1 29.090914,29.09091"
             transform="scale(0.26458333)" />
          <path
             id="path1210"
             style="opacity:1;fill:none;fill-opacity:1;stroke:#1490bb;stroke-width:7.63635;stroke-linecap:butt;stroke-linejoin:round;stroke-miterlimit:4;stroke-dasharray:none;stroke-dashoffset:0;stroke-opacity:1"
             d="m 17.933281,230.21776 a 38.181827,38.181827 0 0 1 0,-0.002 38.181827,38.181827 0 0 1 38.181827,-38.18182 38.181827,38.181827 0 0 1 38.181827,38.18182 v 0 a 38.181827,38.181827 0 0 1 0,0.002"
             transform="scale(0.26458333)" />
        </g>
        <g
           id="g1220"
           transform="translate(0.62116318,14.018065)">
          <path
             id="path1214"
             style="opacity:1;fill:none;fill-opacity:1;stroke:#1490bb;stroke-width:3.99999;stroke-linecap:butt;stroke-linejoin:round;stroke-miterlimit:4;stroke-dasharray:none;stroke-dashoffset:0;stroke-opacity:1"
             d="m 36.115108,230.21777 a 20,20 0 0 1 0,-0.002 20,20 0 0 1 20,-20 20,20 0 0 1 20.000001,20 v 0 a 20,20 0 0 1 0,0.002"
             transform="scale(0.26458333)" />
          <path
             id="path1216"
             style="opacity:1;fill:none;fill-opacity:1;stroke:#1490bb;stroke-width:5.81817;stroke-linecap:butt;stroke-linejoin:round;stroke-miterlimit:4;stroke-dasharray:none;stroke-dashoffset:0;stroke-opacity:1"
             d="m 27.024192,230.21582 a 29.090916,29.090916 0 0 1 29.090916,-29.09091 29.090916,29.090916 0 0 1 29.090914,29.09091"
             transform="scale(0.26458333)" />
          <path
             id="path1218"
             style="opacity:1;fill:none;fill-opacity:1;stroke:#1490bb;stroke-width:7.63635;stroke-linecap:butt;stroke-linejoin:round;stroke-miterlimit:4;stroke-dasharray:none;stroke-dashoffset:0;stroke-opacity:1"
             d="m 17.933281,230.21776 a 38.181827,38.181827 0 0 1 0,-0.002 38.181827,38.181827 0 0 1 38.181827,-38.18182 38.181827,38.181827 0 0 1 38.181827,38.18182 v 0 a 38.181827,38.181827 0 0 1 0,0.002"
             transform="scale(0.26458333)" />
        </g>
        <g
           id="g1228"
           transform="translate(41.030263,14.017536)">
          <path
             id="path1222"
             style="opacity:1;fill:none;fill-opacity:1;stroke:#1490bb;stroke-width:3.99999;stroke-linecap:butt;stroke-linejoin:round;stroke-miterlimit:4;stroke-dasharray:none;stroke-dashoffset:0;stroke-opacity:1"
             d="m 36.115108,230.21777 a 20,20 0 0 1 0,-0.002 20,20 0 0 1 20,-20 20,20 0 0 1 20.000001,20 v 0 a 20,20 0 0 1 0,0.002"
             transform="scale(0.26458333)" />
          <path
             id="path1224"
             style="opacity:1;fill:none;fill-opacity:1;stroke:#1490bb;stroke-width:5.81817;stroke-linecap:butt;stroke-linejoin:round;stroke-miterlimit:4;stroke-dasharray:none;stroke-dashoffset:0;stroke-opacity:1"
             d="m 27.024192,230.21582 a 29.090916,29.090916 0 0 1 29.090916,-29.09091 29.090916,29.090916 0 0 1 29.090914,29.09091"
             transform="scale(0.26458333)" />
          <path
             id="path1226"
             style="opacity:1;fill:none;fill-opacity:1;stroke:#1490bb;stroke-width:7.63635;stroke-linecap:butt;stroke-linejoin:round;stroke-miterlimit:4;stroke-dasharray:none;stroke-dashoffset:0;stroke-opacity:1"
             d="m 17.933281,230.21776 a 38.181827,38.181827 0 0 1 0,-0.002 38.181827,38.181827 0 0 1 38.181827,-38.18182 38.181827,38.181827 0 0 1 38.181827,38.18182 v 0 a 38.181827,38.181827 0 0 1 0,0.002"
             transform="scale(0.26458333)" />
        </g>
      </g>
      <g
         id="g1318"
         transform="matrix(0.38709817,0,0,0.38709817,49.672964,107.91307)">
        <g
           id="g1276"
           transform="translate(-11.0695,0.23556148)">
          <path
             id="path1270"
             style="opacity:1;fill:none;fill-opacity:1;stroke:#1490bb;stroke-width:3.99999;stroke-linecap:butt;stroke-linejoin:round;stroke-miterlimit:4;stroke-dasharray:none;stroke-dashoffset:0;stroke-opacity:1"
             d="m 36.115108,230.21777 a 20,20 0 0 1 0,-0.002 20,20 0 0 1 20,-20 20,20 0 0 1 20.000001,20 v 0 a 20,20 0 0 1 0,0.002"
             transform="scale(0.26458333)" />
          <path
             id="path1272"
             style="opacity:1;fill:none;fill-opacity:1;stroke:#1490bb;stroke-width:5.81817;stroke-linecap:butt;stroke-linejoin:round;stroke-miterlimit:4;stroke-dasharray:none;stroke-dashoffset:0;stroke-opacity:1"
             d="m 27.024192,230.21582 a 29.090916,29.090916 0 0 1 29.090916,-29.09091 29.090916,29.090916 0 0 1 29.090914,29.09091"
             transform="scale(0.26458333)" />
          <path
             id="path1274"
             style="opacity:1;fill:none;fill-opacity:1;stroke:#1490bb;stroke-width:7.63635;stroke-linecap:butt;stroke-linejoin:round;stroke-miterlimit:4;stroke-dasharray:none;stroke-dashoffset:0;stroke-opacity:1"
             d="m 17.933281,230.21776 a 38.181827,38.181827 0 0 1 0,-0.002 38.181827,38.181827 0 0 1 38.181827,-38.18182 38.181827,38.181827 0 0 1 38.181827,38.18182 v 0 a 38.181827,38.181827 0 0 1 0,0.002"
             transform="scale(0.26458333)" />
        </g>
        <g
           id="g1284"
           transform="translate(-31.27405,0.23556148)">
          <path
             id="path1278"
             style="opacity:1;fill:none;fill-opacity:1;stroke:#1490bb;stroke-width:3.99999;stroke-linecap:butt;stroke-linejoin:round;stroke-miterlimit:4;stroke-dasharray:none;stroke-dashoffset:0;stroke-opacity:1"
             d="m 36.115108,230.21777 a 20,20 0 0 1 0,-0.002 20,20 0 0 1 20,-20 20,20 0 0 1 20.000001,20 v 0 a 20,20 0 0 1 0,0.002"
             transform="scale(0.26458333)" />
          <path
             id="path1280"
             style="opacity:1;fill:none;fill-opacity:1;stroke:#1490bb;stroke-width:5.81817;stroke-linecap:butt;stroke-linejoin:round;stroke-miterlimit:4;stroke-dasharray:none;stroke-dashoffset:0;stroke-opacity:1"
             d="m 27.024192,230.21582 a 29.090916,29.090916 0 0 1 29.090916,-29.09091 29.090916,29.090916 0 0 1 29.090914,29.09091"
             transform="scale(0.26458333)" />
          <path
             id="path1282"
             style="opacity:1;fill:none;fill-opacity:1;stroke:#1490bb;stroke-width:7.63635;stroke-linecap:butt;stroke-linejoin:round;stroke-miterlimit:4;stroke-dasharray:none;stroke-dashoffset:0;stroke-opacity:1"
             d="m 17.933281,230.21776 a 38.181827,38.181827 0 0 1 0,-0.002 38.181827,38.181827 0 0 1 38.181827,-38.18182 38.181827,38.181827 0 0 1 38.181827,38.18182 v 0 a 38.181827,38.181827 0 0 1 0,0.002"
             transform="scale(0.26458333)" />
        </g>
        <g
           id="g1292"
           transform="translate(29.3396,0.23503248)">
          <path
             id="path1286"
             style="opacity:1;fill:none;fill-opacity:1;stroke:#1490bb;stroke-width:3.99999;stroke-linecap:butt;stroke-linejoin:round;stroke-miterlimit:4;stroke-dasharray:none;stroke-dashoffset:0;stroke-opacity:1"
             d="m 36.115108,230.21777 a 20,20 0 0 1 0,-0.002 20,20 0 0 1 20,-20 20,20 0 0 1 20.000001,20 v 0 a 20,20 0 0 1 0,0.002"
             transform="scale(0.26458333)" />
          <path
             id="path1288"
             style="opacity:1;fill:none;fill-opacity:1;stroke:#1490bb;stroke-width:5.81817;stroke-linecap:butt;stroke-linejoin:round;stroke-miterlimit:4;stroke-dasharray:none;stroke-dashoffset:0;stroke-opacity:1"
             d="m 27.024192,230.21582 a 29.090916,29.090916 0 0 1 29.090916,-29.09091 29.090916,29.090916 0 0 1 29.090914,29.09091"
             transform="scale(0.26458333)" />
          <path
             id="path1290"
             style="opacity:1;fill:none;fill-opacity:1;stroke:#1490bb;stroke-width:7.63635;stroke-linecap:butt;stroke-linejoin:round;stroke-miterlimit:4;stroke-dasharray:none;stroke-dashoffset:0;stroke-opacity:1"
             d="m 17.933281,230.21776 a 38.181827,38.181827 0 0 1 0,-0.002 38.181827,38.181827 0 0 1 38.181827,-38.18182 38.181827,38.181827 0 0 1 38.181827,38.18182 v 0 a 38.181827,38.181827 0 0 1 0,0.002"
             transform="scale(0.26458333)" />
        </g>
        <g
           id="g1300"
           transform="translate(9.1350499,0.23503248)">
          <path
             id="path1294"
             style="opacity:1;fill:none;fill-opacity:1;stroke:#1490bb;stroke-width:3.99999;stroke-linecap:butt;stroke-linejoin:round;stroke-miterlimit:4;stroke-dasharray:none;stroke-dashoffset:0;stroke-opacity:1"
             d="m 36.115108,230.21777 a 20,20 0 0 1 0,-0.002 20,20 0 0 1 20,-20 20,20 0 0 1 20.000001,20 v 0 a 20,20 0 0 1 0,0.002"
             transform="scale(0.26458333)" />
          <path
             id="path1296"
             style="opacity:1;fill:none;fill-opacity:1;stroke:#1490bb;stroke-width:5.81817;stroke-linecap:butt;stroke-linejoin:round;stroke-miterlimit:4;stroke-dasharray:none;stroke-dashoffset:0;stroke-opacity:1"
             d="m 27.024192,230.21582 a 29.090916,29.090916 0 0 1 29.090916,-29.09091 29.090916,29.090916 0 0 1 29.090914,29.09091"
             transform="scale(0.26458333)" />
          <path
             id="path1298"
             style="opacity:1;fill:none;fill-opacity:1;stroke:#1490bb;stroke-width:7.63635;stroke-linecap:butt;stroke-linejoin:round;stroke-miterlimit:4;stroke-dasharray:none;stroke-dashoffset:0;stroke-opacity:1"
             d="m 17.933281,230.21776 a 38.181827,38.181827 0 0 1 0,-0.002 38.181827,38.181827 0 0 1 38.181827,-38.18182 38.181827,38.181827 0 0 1 38.181827,38.18182 v 0 a 38.181827,38.181827 0 0 1 0,0.002"
             transform="scale(0.26458333)" />
        </g>
      </g>
    </g>
    <path
       style="fill:#f62721;fill-opacity:1;stroke:#000000;stroke-width:0.529167;stroke-linecap:butt;stroke-linejoin:round;stroke-miterlimit:4;stroke-dasharray:none;stroke-opacity:1"
       d="M 88.767031,140.64038 75.400278,149.9788 41.869598,149.31078 17.066324,138.84183 Z"
       id="path917"
       sodipodi:nodetypes="ccccc" />
  </g>
</svg>
